<?xml version="1.0" encoding="UTF-8" standalone="no"?>
<!-- Created with Inkscape (http://www.inkscape.org/) -->

<svg
   width="260mm"
   height="260mm"
   viewBox="0 0 260 260"
   version="1.1"
   id="svg1"
   xml:space="preserve"
   sodipodi:docname="logo.svg"
   inkscape:version="1.4.2 (f4327f4, 2025-05-13)"
   xmlns:inkscape="http://www.inkscape.org/namespaces/inkscape"
   xmlns:sodipodi="http://sodipodi.sourceforge.net/DTD/sodipodi-0.dtd"
   xmlns="http://www.w3.org/2000/svg"
   xmlns:svg="http://www.w3.org/2000/svg"><sodipodi:namedview
     id="namedview1"
     pagecolor="#ffffff"
     bordercolor="#000000"
     borderopacity="0.70588235"
     inkscape:showpageshadow="false"
     inkscape:pageopacity="0.0"
     inkscape:pagecheckerboard="true"
     inkscape:deskcolor="#d1d1d1"
     inkscape:document-units="mm"
     inkscape:zoom="0.70710678"
     inkscape:cx="-94.045201"
     inkscape:cy="486.48946"
     inkscape:window-width="2400"
     inkscape:window-height="1284"
     inkscape:window-x="2397"
     inkscape:window-y="1325"
     inkscape:window-maximized="1"
     inkscape:current-layer="svg1"
     showborder="true"
     borderlayer="false" /><defs
     id="defs1"><inkscape:path-effect
       effect="fillet_chamfer"
       id="path-effect33"
       is_visible="true"
       lpeversion="1"
       nodesatellites_param="F,0,0,1,0,0,0,1 @ F,0,0,1,0,0,0,1 @ F,0,0,1,0,2.7462503,0,1 @ F,0,0,1,0,2.6403373,0,1 @ F,0,0,1,0,0,0,1 @ F,0,0,1,0,2.5191518,0,1 @ F,0,0,1,0,0.84968459,0,1 @ F,0,0,1,0,0.47702806,0,1 @ F,0,0,1,0,0,0,1 @ F,0,0,1,0,0,0,1 @ F,0,0,1,0,0.43188119,0,1 @ F,0,0,1,0,0,0,1 @ F,0,0,1,0,0,0,1 @ F,0,0,1,0,2.9611445,0,1 @ F,0,0,1,0,3.195819,0,1 @ F,0,0,1,0,2.9418139,0,1 @ F,0,0,1,0,0.42261678,0,1 @ F,0,0,1,0,0.20383471,0,1 @ F,0,0,1,0,0.38517931,0,1"
       radius="0"
       unit="px"
       method="auto"
       mode="F"
       chamfer_steps="1"
       flexible="false"
       use_knot_distance="true"
       apply_no_radius="true"
       apply_with_radius="true"
       only_selected="false"
       hide_knots="false" /><inkscape:path-effect
       effect="fillet_chamfer"
       id="path-effect32"
       is_visible="true"
       lpeversion="1"
       nodesatellites_param="F,0,0,1,0,0,0,1 @ F,0,0,1,0,0,0,1 @ F,0,0,1,0,3.0014806,0,1 @ F,0,0,1,0,0,0,1 @ F,0,0,1,0,0,0,1 @ F,0,0,1,0,0.99298181,0,1"
       radius="0"
       unit="px"
       method="auto"
       mode="F"
       chamfer_steps="1"
       flexible="false"
       use_knot_distance="true"
       apply_no_radius="true"
       apply_with_radius="true"
       only_selected="false"
       hide_knots="false" /><inkscape:path-effect
       effect="fillet_chamfer"
       id="path-effect31"
       is_visible="true"
       lpeversion="1"
       nodesatellites_param="F,0,0,1,0,0,0,1 @ F,0,0,1,0,0,0,1 @ F,0,0,1,0,0,0,1 @ F,0,0,1,0,0,0,1 @ F,0,0,1,0,0,0,1 @ F,0,0,1,0,0,0,1 @ F,0,0,1,0,1.5636838,0,1 @ F,0,0,1,0,0,0,1 @ F,0,0,1,0,0,0,1 @ F,0,0,1,0,4.1498399,0,1 @ F,0,0,1,0,0,0,1 @ F,0,0,1,0,0,0,1 @ F,0,0,1,0,0,0,1 @ F,0,0,1,0,0,0,1"
       radius="0"
       unit="px"
       method="auto"
       mode="F"
       chamfer_steps="1"
       flexible="false"
       use_knot_distance="true"
       apply_no_radius="true"
       apply_with_radius="true"
       only_selected="false"
       hide_knots="false" /><inkscape:path-effect
       effect="fillet_chamfer"
       id="path-effect30"
       is_visible="true"
       lpeversion="1"
       nodesatellites_param="F,0,0,1,0,0,0,1 @ F,0,0,1,0,0,0,1 @ F,0,0,1,0,2.7821017,0,1 @ F,0,0,1,0,1.8773665,0,1"
       radius="0"
       unit="px"
       method="auto"
       mode="F"
       chamfer_steps="1"
       flexible="false"
       use_knot_distance="true"
       apply_no_radius="true"
       apply_with_radius="true"
       only_selected="false"
       hide_knots="false" /><inkscape:path-effect
       effect="fillet_chamfer"
       id="path-effect29"
       is_visible="true"
       lpeversion="1"
       nodesatellites_param="F,0,0,1,0,0,0,1 @ F,0,0,1,0,4.7599204,0,1 @ F,0,0,1,0,4.7578314,0,1 @ F,0,0,1,0,0,0,1 @ F,0,0,1,0,0,0,1 @ F,0,0,1,0,0,0,1 @ F,0,0,1,0,2.7705013,0,1 @ F,0,0,1,0,4.0946187,0,1 @ F,0,0,1,0,3.9930076,0,1 @ F,0,0,1,0,0,0,1 @ F,0,0,1,0,1.468512,0,1 @ F,0,0,1,0,1.2820584,0,1 @ F,0,0,1,0,0,0,1"
       radius="0"
       unit="px"
       method="auto"
       mode="F"
       chamfer_steps="1"
       flexible="false"
       use_knot_distance="true"
       apply_no_radius="true"
       apply_with_radius="true"
       only_selected="false"
       hide_knots="false" /><inkscape:path-effect
       effect="fillet_chamfer"
       id="path-effect28"
       is_visible="true"
       lpeversion="1"
       nodesatellites_param="F,0,0,1,0,0,0,1 @ F,0,0,1,0,0,0,1 @ F,0,0,1,0,0,0,1 @ F,0,0,1,0,2.6585571,0,1 @ F,0,0,1,0,0,0,1 @ F,0,0,1,0,0,0,1 @ F,0,0,1,0,2.4486474,0,1 @ F,0,0,1,0,0,0,1 @ F,0,0,1,0,0,0,1"
       radius="0"
       unit="px"
       method="auto"
       mode="F"
       chamfer_steps="1"
       flexible="false"
       use_knot_distance="true"
       apply_no_radius="true"
       apply_with_radius="true"
       only_selected="false"
       hide_knots="false" /><inkscape:path-effect
       effect="fillet_chamfer"
       id="path-effect25"
       is_visible="true"
       lpeversion="1"
       nodesatellites_param="F,0,0,1,0,0,0,1 @ F,0,0,1,0,1.5208213,0,1 @ F,0,0,1,0,0,0,1 @ F,0,0,1,0,0,0,1 @ F,0,0,1,0,0.57953153,0,1 @ F,0,0,1,0,0,0,1"
       radius="0"
       unit="px"
       method="auto"
       mode="F"
       chamfer_steps="1"
       flexible="false"
       use_knot_distance="true"
       apply_no_radius="true"
       apply_with_radius="true"
       only_selected="false"
       hide_knots="false" /><inkscape:path-effect
       effect="fillet_chamfer"
       id="path-effect19"
       is_visible="true"
       lpeversion="1"
       nodesatellites_param="F,0,0,1,0,1.2480161,0,1 @ F,0,0,1,0,0.88981608,0,1 @ F,0,0,1,0,1.4499065,0,1 @ F,0,0,1,0,1.1536961,0,1 | F,0,0,1,0,0.45474638,0,1 @ F,0,0,1,0,0.45505643,0,1 @ F,0,0,1,0,0.40411049,0,1 @ F,0,0,1,0,0.3523493,0,1"
       radius="0"
       unit="px"
       method="auto"
       mode="F"
       chamfer_steps="1"
       flexible="false"
       use_knot_distance="true"
       apply_no_radius="true"
       apply_with_radius="true"
       only_selected="false"
       hide_knots="false" /><inkscape:path-effect
       effect="fillet_chamfer"
       id="path-effect18"
       is_visible="true"
       lpeversion="1"
       nodesatellites_param="F,0,0,1,0,0,0,1 @ F,0,0,1,0,0,0,1 @ F,0,0,1,0,0,0,1 @ F,0,0,1,0,0,0,1 | F,0,0,1,0,0,0,1 @ F,0,0,1,0,0,0,1 @ F,0,0,1,0,0,0,1 @ F,0,0,1,0,0,0,1"
       radius="0"
       unit="px"
       method="auto"
       mode="F"
       chamfer_steps="1"
       flexible="false"
       use_knot_distance="true"
       apply_no_radius="true"
       apply_with_radius="true"
       only_selected="false"
       hide_knots="false" /><pattern
       patternUnits="userSpaceOnUse"
       width="1344"
       height="512.00001"
       patternTransform="translate(-265.11619,628.34215)"
       preserveAspectRatio="xMidYMid"
       id="pattern8"><path
         style="fill:#f6f7f8;stroke-width:3.77953"
         d="M 0,255.99999 V 0 H 672.00002 1344 V 255.99999 512.00001 H 672.00002 0 Z m 709.60001,204.41242 c 31.67717,-15.25232 95.10146,-45.61281 112.40001,-53.8046 7.92,-3.75054 14.71317,-7.10279 15.09596,-7.44945 0.3828,-0.34658 3.5062,-25.9491 6.94092,-56.89432 3.43472,-30.94522 10.05641,-90.46405 14.71487,-132.26404 4.65842,-41.79999 9.74374,-87.47127 11.30067,-101.49169 1.55694,-14.020461 2.69458,-25.627957 2.52809,-25.794445 -0.1663,-0.1663 -13.59518,-3.563074 -29.8416,-7.548019 C 826.49252,71.180901 802.22002,65.213027 788.80001,61.903861 764.38052,55.882394 743.54304,50.784076 697.34289,39.526904 l -24.65715,-6.007937 -26.94285,6.516283 c -14.81859,3.583937 -58.80288,14.359673 -97.74288,23.946029 -38.94,9.586356 -72.01138,17.689965 -73.49195,18.008012 l -2.69196,0.57823 0.54655,4.116246 c 0.30059,2.263937 2.12198,18.516243 4.04749,36.116263 4.14778,37.91228 17.00764,153.6167 20.3616,183.19997 2.43348,21.46435 6.37747,57.66059 8.49898,78 0.66547,6.37999 1.38022,12.41624 1.58833,13.41385 0.29306,1.40488 2.49345,2.82364 9.75967,6.29291 5.15971,2.46346 17.48129,8.34058 27.38129,13.06027 9.9,4.71968 30.6,14.63626 46,22.03684 15.4,7.40058 40.22125,19.29237 55.15834,26.42619 l 27.15832,12.97058 7.24165,-3.40509 c 3.98294,-1.87279 17.50171,-8.34519 30.04169,-14.38314 z m -68.91606,-78.71735 c -0.37304,-5.39502 -0.21845,-5.69507 2.93738,-5.69507 5.03009,0 5.17867,-0.75111 5.17867,-26.17799 v -22.62199 h 5.60001 5.60001 l -10e-4,24.6 c -10e-4,21.8394 -0.15837,24.90781 -1.40002,27.34311 -2.25176,4.416 -4.89774,5.83937 -11.66199,6.27345 l -5.96886,0.38309 z m 37.35062,-10.52342 c -3.89704,-0.48665 -5.16231,-1.03926 -6.94337,-3.03258 -2.17554,-2.43488 -3.81177,-8.72595 -2.72629,-10.48225 0.2914,-0.47124 2.67727,-0.85682 5.3023,-0.85682 4.67554,0 4.78269,0.0495 5.25849,2.42842 0.26722,1.33565 1.13447,2.77565 1.92741,3.20001 1.91331,1.02395 9.24975,0.98691 11.1995,-0.0567 1.79165,-0.95883 2.16283,-5.68619 0.54739,-6.97168 -0.55,-0.43767 -4.76047,-1.54405 -9.3566,-2.4587 -11.82815,-2.35373 -14.41051,-4.66968 -14.43035,-12.94148 -0.0227,-9.82098 3.88411,-12.79921 16.78696,-12.79426 10.60913,0.004 14.00088,0.90141 16.03861,4.24339 2.02802,3.32598 2.12546,8.52623 0.16139,8.6121 -0.77,0.034 -2.12001,0.20863 -3,0.38873 -2.99116,0.61224 -5.82966,-0.46235 -6.31351,-2.39018 -0.35868,-1.42922 -1.17177,-1.94101 -3.60132,-2.26688 -1.72593,-0.23169 -4.34113,-0.17688 -5.8116,0.12132 -2.31386,0.46931 -2.70833,0.90195 -2.93185,3.21574 -0.14211,1.47042 0.0416,2.97346 0.40834,3.34012 0.36661,0.36661 4.32064,1.37491 8.78665,2.24065 4.466,0.86574 9.26063,2.16389 10.65467,2.8848 3.5082,1.81414 5.05523,5.85899 4.65355,12.16709 -0.34659,5.44445 -2.10683,8.74341 -5.51687,10.34015 -2.53425,1.18666 -15.06519,1.82162 -21.0935,1.06885 z m -29.46951,-50.87323 c -0.31068,-0.31068 -0.56504,-2.66506 -0.56504,-5.23174 v -4.66666 h 6.43816 6.43816 l -0.23811,5.00002 -0.23811,4.99997 -5.63493,0.23169 c -3.09925,0.12737 -5.88922,-0.0227 -6.20001,-0.33336 z m 55.83496,-28.46366 c -3.82492,-1.33701 -7.4838,-4.47073 -9.2406,-7.9143 -2.10407,-4.12433 -2.8636,-12.27046 -1.60932,-17.26046 2.50892,-9.9815 9.54803,-13.6354 28.04991,-14.56017 l 9.99999,-0.49981 -0.008,-4.97835 c -0.0113,-7.08446 -0.95679,-7.83855 -9.744,-7.76028 -6.17057,0.0552 -7.04432,0.25209 -8.36946,1.88863 -0.81377,1.00498 -1.47961,2.46886 -1.47961,3.25304 0,0.78418 -0.56943,1.64428 -1.26543,1.91138 -1.65104,0.63353 -9.84,0.62449 -13.03457,-0.0151 -2.26322,-0.45267 -2.5,-0.78236 -2.5,-3.48064 0,-6.41155 3.19336,-11.52272 9.09532,-14.55753 8.02,-4.12388 29.5669,-3.80436 36.99469,0.54864 2.81874,1.65184 4.10586,3.11062 5.53316,6.27106 1.80438,3.99523 1.86886,4.91498 2.15595,30.74385 l 0.29594,26.62545 -8.43753,-0.22526 -8.43757,-0.22526 -0.39999,-3.04036 -0.40002,-3.04033 -2.79999,2.12712 c -5.26874,4.00255 -8.71094,5.1219 -15.6,5.07284 -3.51999,-0.0265 -7.47999,-0.42312 -8.79999,-0.88452 z m 22.59999,-14.60576 c 2.59453,-1.20794 4.25322,-2.50462 4.33924,-3.39216 0.41941,-4.32794 0.4563,-7.27408 0.11565,-9.23683 -0.44867,-2.58459 -1.55338,-2.71106 -11.17905,-1.27941 -7.96955,1.18534 -9.87571,2.85358 -9.87571,8.64306 0,5.64662 1.71809,7.23886 7.8,7.22854 3.18689,-0.004 5.8902,-0.6085 8.79998,-1.9632 z m -165.74915,14.0533 c -0.24397,-0.39473 -4.39379,-14.47521 -9.22184,-31.28991 -4.82805,-16.81474 -8.99765,-31.26342 -9.26578,-32.10822 -0.46449,-1.46347 -0.0442,-1.52534 8.9007,-1.31006 l 9.38821,0.22601 4.8392,21.79472 c 2.66157,11.98708 5.09714,21.5271 5.41239,21.19998 0.31525,-0.32693 1.84341,-5.63471 3.39589,-11.7947 1.55249,-6.16002 4.0324,-15.87099 5.51091,-21.57997 l 2.6882,-10.37994 8.35063,0.22299 c 4.59285,0.12246 8.57103,0.47362 8.84039,0.77995 0.4933,0.56107 6.57084,23.34614 9.70296,36.377 0.92803,3.86098 1.95416,6.74098 2.28028,6.39999 0.32613,-0.34091 2.62206,-9.61999 5.10208,-20.61997 2.48003,-11.00001 4.69446,-20.63002 4.92095,-21.39998 0.3597,-1.22287 1.51849,-1.40002 9.15789,-1.40002 4.81035,0 8.74609,0.28082 8.74609,0.62423 0,0.34318 -4.09534,15.01334 -9.10077,32.60001 l -9.10078,31.97575 -9.25789,0.22488 -9.2579,0.22488 -1.58263,-5.42502 c -1.57934,-5.41379 -8.2368,-30.19464 -9.49433,-35.34051 -0.73127,-2.99236 -0.99815,-2.16582 -9.07839,28.11549 l -3.36218,12.6 h -9.03535 c -4.96944,0 -9.23496,-0.32315 -9.47893,-0.71773 z m 86.57837,-17.48228 c -0.12624,-10.01 -0.13267,-24.85999 -0.0151,-33 l 0.21467,-14.79998 8.38511,0.25133 8.38515,0.25134 v 4.46457 4.46457 l 4.22566,-3.99648 c 4.55335,-4.30635 7.72052,-5.71188 13.37431,-5.93537 7.54727,-0.2982 7.02981,-0.90448 6.90811,8.09277 l -0.10809,7.99302 -5.84576,0.008 c -7.59617,0.008 -12.43022,1.27555 -15.37761,4.02882 l -2.37665,2.2201 v 22.07905 22.07902 h -8.77077 -8.77081 z M 766.4,266.02707 V 240 h -5.19999 -5.19999 v -6.7618 -6.76184 L 761,226.23825 l 5.00001,-0.23811 0.45524,-8.00001 c 0.85641,-15.04884 5.41474,-18.79998 22.84536,-18.79998 h 9.0994 v 7.2 7.19996 H 792.8 c -7.36316,0 -8.7998,1.27336 -8.80041,7.8 l -3.7e-4,4.60003 7.20037,-0.27969 7.20042,-0.27968 v 7.2796 7.27959 h -7.18893 -7.18888 l -0.2109,25.8 -0.2109,25.8 -8.60001,0.22715 -8.60001,0.22715 z m -24.34708,-80.68943 c -1.88209,-1.3762 -1.88209,-5.29905 0,-6.67525 2.04783,-1.49738 3.8648,-1.32129 5.5471,0.53764 1.22219,1.3505 2.46395,1.59998 7.964,1.59998 4.00131,0 6.88648,-0.37039 7.47598,-0.96 0.58821,-0.58821 0.96,-3.46272 0.96,-7.4222 0,-5.47222 -0.24529,-6.67207 -1.59999,-7.83216 -3.22095,-2.75788 -1.40927,-7.18564 2.94009,-7.18564 3.91045,0 5.62923,4.64323 2.65992,7.18564 -1.37442,1.17679 -1.60002,2.35994 -1.60002,8.39214 0,9.56319 -0.66248,10.22222 -10.27601,10.22222 -6.06002,0 -7.2839,0.2298 -8.52397,1.59999 -1.6823,1.85892 -3.49927,2.03501 -5.5471,0.53764 z M 575.20001,161.60001 v -24 h 23.97742 23.97743 l 0.22258,11.00002 0.22257,10.99997 12.10612,0.22035 12.10613,0.22034 0.54255,-3.61799 c 0.29858,-1.98992 0.30878,-6.04906 0.0227,-9.02033 -0.30954,-3.22084 -0.17574,-6.29072 0.33147,-7.60233 l 0.851,-2.19999 h 22.32185 c 17.45767,0 22.51189,0.22904 23.19398,1.05086 0.4961,0.59773 0.96952,5.3407 1.09795,10.99998 l 0.22564,9.94915 11.52427,0.22261 c 10.93527,0.21128 11.62008,0.13266 13.39997,-1.53944 1.67864,-1.57701 1.87574,-2.46761 1.87574,-8.47532 0,-9.64162 0.1493,-9.80795 8.79701,-9.80795 6.19264,0 7.34566,-0.21997 8.68459,-1.65721 2.32098,-2.49124 6.63421,-1.87325 7.67324,1.09942 1.05997,3.03247 -0.22072,4.88965 -3.60019,5.22074 -1.78696,0.17499 -3.0006,-0.17008 -3.63122,-1.03241 -0.77412,-1.05865 -2.24269,-1.25292 -8.03531,-1.063 l -7.08809,0.23244 -0.23055,6.96934 c -0.20296,6.12661 -0.034,7.16648 1.40001,8.59997 2.02171,2.02171 2.08279,4.17359 0.16781,5.90673 -1.96475,1.77807 -4.37624,1.6696 -6.13701,-0.27591 -1.32411,-1.46313 -2.46398,-1.60002 -13.324,-1.60002 h -11.876 v 10.77188 c 0,9.83104 -0.1353,10.84418 -1.54741,11.59997 -0.95229,0.50967 -9.50816,0.82817 -22.24709,0.82817 -16.63144,0 -21.00492,-0.22337 -22.25261,-1.13737 -1.27771,-0.93581 -1.56666,-2.17618 -1.63045,-6.99999 -0.0427,-3.22447 -0.13267,-7.93266 -0.19994,-10.46264 l -0.12246,-4.60002 h -12.39967 -12.4 v 11.60001 11.60001 h -24 -24 z M 617.68157,181.8 c -0.9796,-1.77022 -18.34775,-19.04523 -18.65996,-18.55986 -0.12733,0.19805 -4.53013,4.76988 -9.784,10.15986 l -9.55248,9.80001 h 19.38559 c 18.22427,0 19.33917,-0.0839 18.61085,-1.40001 z m 75.73174,-20.4 -0.21316,-21 -21,-0.21317 -21,-0.21316 v 21.21328 21.21328 h 21.21332 21.21327 z M 656,176.00001 v -2.4 h 12 12 v 2.4 2.4 h -12 -12 z m -0.49081,-7.54821 c -0.24227,-0.63152 -0.25172,-3.42149 -0.0189,-6.20001 0.23093,-2.77848 0.44054,-7.84176 0.46571,-11.25176 l 0.0457,-6.20002 h 6.80001 6.80001 V 157.2 169.60003 h -6.82511 c -5.19193,0 -6.93055,-0.27478 -7.26572,-1.14823 z m 18.09082,0.3481 c 0,-0.44001 1.44,-0.80001 3.20001,-0.80001 1.75998,0 3.19998,0.35981 3.19998,0.80001 0,0.44001 -1.44,0.80001 -3.19998,0.80001 -1.76001,0 -3.20001,-0.35981 -3.20001,-0.80001 z m 0.53333,-4.53332 c -1.45561,-1.45561 0.10053,-1.86667 7.06666,-1.86667 6.22223,0 7.60002,0.2177 7.60002,1.2 0,0.9761 -1.31852,1.2 -7.06666,1.2 -3.88667,0 -7.30669,-0.24 -7.60002,-0.53333 z m 0,-5.60001 c -1.45561,-1.45561 0.10053,-1.86667 7.06666,-1.86667 6.22223,0 7.60002,0.2177 7.60002,1.2 0,0.9761 -1.31852,1.2 -7.06666,1.2 -3.88667,0 -7.30669,-0.24 -7.60002,-0.53333 z m -0.53333,-9.86668 v -3.99999 h 7.59999 7.60002 v 3.99999 4.00002 H 681.2 673.60001 Z m -85.34686,22.13968 9.25096,-9.86034 -9.36407,-9.33966 c -5.15023,-5.13684 -9.53865,-9.33926 -9.75204,-9.33876 -0.2134,4.9e-4 -0.42034,8.64049 -0.45989,19.2 -0.0395,10.5595 0.18595,19.19909 0.50109,19.19909 0.31514,0 4.73593,-4.43717 9.82395,-9.86033 z m 32.54686,-9.91461 v -19.77498 l -4.86226,4.77498 c -2.67425,2.6262 -7.05358,7.23004 -9.73186,10.23073 l -4.86958,5.45578 9.51935,9.54422 c 5.23564,5.24931 9.61497,9.54421 9.73185,9.54421 0.11686,0 0.21248,-8.89875 0.21248,-19.77494 z m -11.6,-11.42506 9.57499,-9.6 h -19.57499 -19.57499 l 9.57499,9.6 c 5.26624,5.28 9.76624,9.6 10,9.6 0.23376,0 4.73376,-4.32 10,-9.6 z m 115.60001,30.17495 c 0,-1.30102 8.91598,-10.17494 10.22321,-10.17494 1.89846,0 0.92591,1.77211 -3.54501,6.45937 -4.36184,4.57296 -6.6782,5.8617 -6.6782,3.71557 z m 13.92,-12.09494 c -2.2693,-2.2693 -2.71706,-3.29665 -2.70221,-6.20001 0.0476,-9.34605 12.08508,-12.18973 16.38679,-3.87118 1.51608,2.93185 1.51128,5.0598 -0.0189,8.01736 -1.44371,2.7919 -4.94223,4.77381 -8.42672,4.77381 -1.79891,0 -3.29783,-0.77809 -5.23971,-2.71998 z m 7.39469,-3.48 c 1.91535,-1.21001 3.4831,-2.42218 3.48389,-2.69371 0.002,-0.6695 -6.15791,-4.7063 -7.18144,-4.7063 -0.46541,0 -0.81714,2.06615 -0.81714,4.8 0,2.64 0.23244,4.8 0.5161,4.8 0.28384,0 2.08323,-0.99001 3.99859,-2.19999 z m 6.87344,-11.53187 c -0.7288,-0.7288 -0.12321,-1.82702 2.63263,-4.77309 3.7454,-4.00414 4.39095,-5.49505 2.37922,-5.49505 -0.66664,0 -1.2,-0.71112 -1.2,-1.59999 0,-1.40606 0.53336,-1.60002 4.40001,-1.60002 h 4.40001 v 5.20002 c 0,4.08888 -0.25625,5.19999 -1.2,5.19999 -0.74668,0 -1.2,-0.75557 -1.2,-2.00001 0,-1.1 -0.25852,-1.99998 -0.57486,-1.99998 -0.31635,0 -2.40083,1.80333 -4.63261,4.00736 -3.12416,3.08538 -4.27559,3.78958 -5.0044,3.06077 z"
         id="path8" /></pattern><pattern
       patternUnits="userSpaceOnUse"
       width="49.546429"
       height="49.608826"
       patternTransform="translate(315.18769,221.21169)"
       preserveAspectRatio="xMidYMid"
       id="pattern9"><rect
         style="opacity:0.570605;fill:#8ad35f;fill-opacity:1;stroke:none;stroke-width:0.999999"
         id="rect9"
         width="49.546429"
         height="49.608826"
         x="0"
         y="0" /></pattern><inkscape:path-effect
       effect="fillet_chamfer"
       id="path-effect25-8"
       is_visible="true"
       lpeversion="1"
       nodesatellites_param="F,0,0,1,0,0,0,1 @ F,0,0,1,0,1.5208213,0,1 @ F,0,0,1,0,0,0,1 @ F,0,0,1,0,0,0,1 @ F,0,0,1,0,0.57953153,0,1 @ F,0,0,1,0,0,0,1"
       radius="0"
       unit="px"
       method="auto"
       mode="F"
       chamfer_steps="1"
       flexible="false"
       use_knot_distance="true"
       apply_no_radius="true"
       apply_with_radius="true"
       only_selected="false"
       hide_knots="false" /><pattern
       patternUnits="userSpaceOnUse"
       width="49.546429"
       height="49.608826"
       patternTransform="translate(315.18769,221.21169)"
       preserveAspectRatio="xMidYMid"
       id="pattern9-2"><rect
         style="opacity:0.570605;fill:#8ad35f;fill-opacity:1;stroke:none;stroke-width:0.999999"
         id="rect9-3"
         width="49.546429"
         height="49.608826"
         x="0"
         y="0" /></pattern><pattern
       patternUnits="userSpaceOnUse"
       width="49.546429"
       height="49.608826"
       patternTransform="translate(315.18769,221.21169)"
       preserveAspectRatio="xMidYMid"
       id="pattern9-8"><rect
         style="opacity:0.570605;fill:#8ad35f;fill-opacity:1;stroke:none;stroke-width:0.999999"
         id="rect9-7"
         width="49.546429"
         height="49.608826"
         x="0"
         y="0" /></pattern><pattern
       patternUnits="userSpaceOnUse"
       width="49.546429"
       height="49.608826"
       patternTransform="translate(315.18769,221.21169)"
       preserveAspectRatio="xMidYMid"
       id="pattern9-3"><rect
         style="opacity:0.570605;fill:#8ad35f;fill-opacity:1;stroke:none;stroke-width:0.999999"
         id="rect9-4"
         width="49.546429"
         height="49.608826"
         x="0"
         y="0" /></pattern></defs><path
     d="M 130.2274,131.77416 V 23.788976 l -93.391606,22.934997 -0.0044,-0.0043 9.046078,84.125587 h 0.0022 l 0.08527,0.73496 z"
     style="opacity:1;fill:#2f82b8;fill-opacity:1;stroke-width:0.574495"
     id="path102" /><path
     d="m 130.01756,131.77416 0.35233,103.2074 0.39048,0.18631 77.24513,-36.301 0.0988,0.0796 6.52704,-66.97711 z"
     style="opacity:1;fill:#ee6821;fill-opacity:1;stroke-width:0.574495"
     id="path107" /><path
     d="m 36.831387,46.719544 0.0044,0.0043 93.351283,-22.916867 0.038,0.0042 L 130.03004,3.6361072 15.139686,32.100624 c 0,0 24.734163,42.905924 21.691709,14.618863 z"
     style="opacity:1;fill:#4296ca;fill-opacity:1;stroke-width:0.574495"
     id="path97"
     sodipodi:nodetypes="ccccccc" /><path
     d="M 244.9169,31.553658 130.03889,3.6625247 l -0.0111,-0.015195 0.18479,20.0740163 93.9541,22.905531 -0.12116,0.08858 20.86721,-15.170402 c -8.29265,5.950822 -8.64234,6.199569 0.004,0.0087 z"
     style="opacity:1;fill:#2876a9;fill-opacity:1;stroke-width:0.574495"
     id="path91"
     sodipodi:nodetypes="ccccccccc" /><path
     d="m 130.2274,131.77416 84.40387,0.19519 0.0786,-0.80115 0.14809,-0.004 9.18746,-84.447637 0.12117,-0.08858 -93.50982,-22.829363 -0.43161,-0.118338 0.002,-0.0065 z"
     style="opacity:1;fill:#206a99;fill-opacity:1;stroke-width:0.683921"
     id="path103"
     sodipodi:nodetypes="cccccccccc" /><path
     d="M 98.460645,131.70122 H 45.978367 l 7.692871,66.6472 c -6.639201,5.47796 -7.338885,6.05485 -0.134645,0.11226 l 76.833317,36.52092 -0.35234,-103.2074 z"
     style="opacity:1;fill:#f28120;fill-opacity:1;stroke-width:0.683921"
     id="path106"
     sodipodi:nodetypes="ccccccc" /><path
     d="m 98.460645,131.70122 31.556915,0.073 v -0.073 z"
     style="opacity:0.570605;fill:#ff00ff;stroke-width:0.683921"
     id="path105" /><path
     id="path16-6"
     style="fill:#f9f9f9;stroke-width:0.57305"
     d="m 172.10167,62.357974 a 3.0340337,2.8563075 0 0 0 -2.81974,1.803157 l -6.85469,-0.01521 a 3.2115776,3.2115776 0 0 0 -3.21696,3.29325 l 0.18173,7.071248 a 3.0340337,2.8563075 0 0 0 -1.4351,1.083899 l -13.13156,0.04381 0.0493,-10.116508 a 2.6822485,2.6822485 0 0 0 -2.6963,-2.695202 l -23.9269,0.128978 a 1.936198,1.936198 0 0 0 -1.92547,1.942294 l 0.0347,10.864945 -13.26505,-0.06843 V 62.835449 H 74.63232 v 28.356777 h 28.4645 V 77.573752 l 13.27064,0.06732 0.0337,10.559708 a 3.1450856,3.1450856 0 0 0 3.15861,3.135061 l 22.68587,-0.09771 a 2.5279616,2.5279616 0 0 0 2.51682,-2.515642 l 0.0539,-11.050107 12.68379,0.01952 a 3.0340337,2.8563075 0 0 0 2.98358,2.339519 3.0340337,2.8563075 0 0 0 3.03406,-2.855657 3.0340337,2.8563075 0 0 0 -1.73471,-2.581865 l -0.12226,-7.065645 a 1.2367375,1.2367375 0 0 1 1.23649,-1.257829 h 6.38678 a 3.0340337,2.8563075 0 0 0 2.81751,1.798662 3.0340337,2.8563075 0 0 0 3.03407,-2.856771 3.0340337,2.8563075 0 0 0 -3.03407,-2.855662 z m 12.79604,1.574255 -6.24765,0.07622 -0.0672,2.352957 2.09265,-0.04495 -4.75194,5.123351 1.52603,1.543943 5.20637,-5.1772 0.0719,2.502214 2.18909,0.07188 -0.0174,-6.247663 -0.0224,-0.0011 z M 99.465991,64.806316 88.695304,75.799171 77.765285,64.935339 Z m 19.885189,0.03365 22.4211,0.01737 a 0.98860542,0.98860542 0 0 1 0.98854,0.988539 l 0.008,22.18993 a 0.98161227,0.98161227 0 0 1 -0.98739,0.981804 l -22.23257,-0.137006 a 0.88606316,0.88606316 0 0 1 -0.87971,-0.883084 l -0.0819,-22.393005 a 0.76169372,0.76169372 0 0 1 0.76301,-0.764132 z m -42.611456,1.197226 10.784149,10.95697 -10.945717,11.170142 z m 24.247776,0.03365 0.0964,22.041822 L 90.019256,77.11532 Z m 19.69784,0.860626 v 15.081657 h 9.03934 V 66.931481 Z m 10.5115,0 v 5.510457 h 9.69912 v -5.510457 z m 40.94748,4.454606 a 5.5744126,5.6282716 0 0 0 -5.57443,5.628263 5.5744126,5.6282716 0 0 0 5.57443,5.628275 5.5744126,5.6282716 0 0 0 5.5744,-5.628275 5.5744126,5.6282716 0 0 0 -5.5744,-5.628263 z m -40.897,2.401203 v 2.259854 h 9.44554 v -2.259854 z m 52.71568,0.364675 a 3.0340337,2.8563075 0 0 0 -3.03407,2.856773 3.0340337,2.8563075 0 0 0 1.85926,2.633483 l -0.0111,6.825529 a 1.2427673,1.2427673 0 0 1 -1.26008,1.240996 l -6.52368,-0.09095 a 3.0340337,2.8563075 0 0 0 -2.71315,-1.576507 3.0340337,2.8563075 0 0 0 -3.03405,2.856801 3.0340337,2.8563075 0 0 0 3.03405,2.855623 3.0340337,2.8563075 0 0 0 2.74907,-1.64719 l 6.98709,-0.190631 a 3.3266837,3.3266837 0 0 0 3.23491,-3.392015 l -0.13701,-6.872632 a 3.0340337,2.8563075 0 0 0 1.88166,-2.642456 3.0340337,2.8563075 0 0 0 -3.03405,-2.856773 z m -13.44345,0.106605 4.63187,2.728862 -4.63187,2.962251 z m -39.3418,2.799556 v 2.25983 h 9.44553 v -2.25983 z m -42.351168,1.258963 10.921051,11.096078 -22.036219,0.09771 z m 42.370258,1.969215 v 2.107219 h 4.34127 v -2.107219 z m 35.22942,0.79442 -6.33741,6.391275 1.40032,1.328528 6.28356,-6.37331 z m -45.84192,2.201492 v 3.707306 h 15.38575 v -3.707295 z m 72.85787,15.294845 a 8.8757329,8.8757329 0 0 0 -9.00906,8.874392 v 6.42943 h -5.9604 l 0.14353,8.68926 5.67315,-0.14352 v 30.01743 l 10.98726,-0.14353 -0.35908,-30.30468 8.54565,0.0719 -0.0719,-8.3302 -8.76107,0.14353 0.0708,-3.28426 c 0.0401,-1.87473 1.58811,-3.22994 3.4627,-3.21248 2.31149,0.0217 3.37657,-0.23635 5.51494,-0.25359 l -0.21539,-8.402006 z m -39.46972,14.571132 c -5.71848,-0.0741 -10.42506,4.48058 -10.53842,10.19844 l -0.0506,2.51454 10.40938,0.10104 0.056,-1.58437 c 0.0539,-1.55412 1.32531,-2.7884 2.88036,-2.79618 l 4.53873,-0.0216 c 1.77296,-0.008 3.22902,1.39873 3.28093,3.17091 l 0.11119,3.82066 -12.92955,0.85163 c -4.93548,0.32526 -8.84873,4.28863 -9.11114,9.22785 l -0.23677,4.45122 c -0.2611,4.91175 3.49403,9.11211 8.40425,9.40065 l 4.11012,0.24125 c 3.76434,0.2214 7.40055,-1.40476 9.74513,-4.35811 l 0.17046,-0.21431 v 4.164 l 10.66298,0.0516 -0.40958,-28.61823 c -0.083,-5.75013 -4.72866,-10.38904 -10.47893,-10.46324 z m -13.43223,0.0684 -6.02212,0.45889 a 9.2989719,9.2989719 0 0 0 -7.64238,5.17833 l -0.24912,0.50719 0.0517,-5.53516 h -10.56312 l 0.10209,38.59225 10.86719,-0.15263 -0.16264,-22.91702 a 5.7748222,5.7748222 0 0 1 5.73153,-5.81566 l 7.83649,-0.0583 z m -51.185177,0.50827 -10.105308,0.10104 -6.854675,26.25291 -5.687744,-26.15082 h -11.11965 l 11.272251,38.64276 10.664071,-0.0517 6.702102,-24.98273 6.602219,24.98273 11.018671,0.0517 10.96815,-38.64276 -11.12075,-0.15264 -5.738248,26.45602 z m 74.898877,21.47853 v 6.75371 l -4.11013,2.08256 c -2.76814,1.40246 -7.1781,-0.0196 -7.57057,-3.09804 l -0.0415,-0.32313 c -0.2818,-2.21284 1.93123,-4.47513 4.15163,-4.68911 z m -40.01393,26.81174 -7.76917,0.0506 0.15264,7.00726 h 7.76918 z m 10.05595,9.76082 a 5.690224,5.690224 0 0 0 -5.7405,5.68212 l -0.004,2.75805 0.0325,0.99749 a 6.3241995,6.3241995 0 0 0 5.61145,6.08047 l 3.8958,0.43986 a 278.08895,278.08895 0 0 1 3.66353,0.43871 c 0.42871,0.0541 0.90067,0.54647 0.99977,1.10973 0.20888,1.18715 0.24231,2.52207 -0.46006,2.96898 -0.66614,0.42384 -1.79525,0.47939 -2.79618,0.49258 -1.36181,0.0174 -2.68938,-0.036 -3.54007,-0.083 -0.51655,-0.0285 -0.96082,-0.47947 -0.99305,-0.99639 l -0.15482,-2.48874 h -6.89397 l 0.0617,2.62114 a 6.6062077,6.6062077 0 0 0 6.58313,6.44851 l 8.46147,0.028 a 6.8680558,6.8680558 0 0 0 6.89062,-6.91642 l -0.0151,-2.041 a 7.2270641,7.2270641 0 0 0 -6.38904,-7.12849 l -7.36744,-0.8595 a 0.96740929,0.96740929 0 0 1 -0.85279,-1.02221 l 0.14701,-2.3137 a 0.46853239,0.46853239 0 0 1 0.47014,-0.4387 l 5.27481,0.0347 a 0.9058672,0.9058672 0 0 1 0.89767,0.83932 l 0.12898,1.73582 6.64265,0.0719 0.0506,-2.36869 a 5.8874364,5.8874364 0 0 0 -5.83363,-6.01423 z m -17.82512,0.24237 0.49258,26.02737 a 2.0718185,2.0718185 0 0 1 -2.11508,2.11062 l -2.69297,-0.0574 -0.17848,5.78873 5.59572,0.12897 a 6.3876662,6.3876662 0 0 0 6.5349,-6.36657 l 0.0819,-27.52985 z" /><path
     d="m 35.779007,213.39365 17.763384,-14.94692 c -7.206477,5.9445 -6.504971,5.38437 0.132407,-0.0921 l -7.706334,-66.7684 -19.509321,-0.0449 0.0089,0.0694 z"
     style="opacity:1;fill:#e56c1d;fill-opacity:1;stroke-width:0.574495"
     id="path111"
     sodipodi:nodetypes="ccccccc" /><path
     d="m 35.774322,213.38744 94.946768,45.09239 c 0.0428,-19.73623 0.043,-19.65954 -0.007,0.0314 l 0.0448,-23.34342 -77.221539,-36.72737 c -7.206475,5.94451 -17.763384,14.94692 -17.763384,14.94692 z"
     style="opacity:1;fill:#d9591a;fill-opacity:1;stroke-width:0.574495"
     id="path112"
     sodipodi:nodetypes="cccccc" /><path
     d="m 130.72109,258.47983 c 0.0428,-19.73623 0.043,-19.65954 -0.007,0.0314 l 94.49452,-45.72636 -17.10592,-13.83837 -0.0988,-0.0796 -77.24511,36.30099 z"
     style="opacity:1;fill:#ce4815;fill-opacity:1;stroke-width:0.574495"
     id="path113"
     sodipodi:nodetypes="ccccccc" /><path
     d="m 225.20909,212.78495 8.9742,-80.77054 -19.5531,-0.0449 -6.52703,66.9771 -0.0988,-0.0796 z"
     style="opacity:1;fill:#db5719;fill-opacity:1;stroke-width:0.574495"
     id="path114"
     sodipodi:nodetypes="cccccc" /><path
     d="m 244.9169,31.553658 -20.74999,15.073213 -0.12115,0.08859 -9.18748,84.447629 -0.14808,0.004 -0.0786,0.80116 19.5531,0.0449 0.13811,-1.26569 h 0.0236 l 10.5665,-99.202802 c -8.29264,5.950821 -8.64233,6.199568 0.004,0.0087 z"
     style="opacity:1;fill:#11547f;fill-opacity:1;stroke-width:0.574495"
     id="path115"
     sodipodi:nodetypes="cccccccccccc" /><path
     d="m 26.458948,131.53514 19.505956,0.045 -0.08528,-0.73494 h -0.0022 l -9.046077,-84.125615 0.0044,0.0043 -21.696224,-14.623104 z"
     style="opacity:1;fill:#2470a1;fill-opacity:1;stroke-width:0.574495"
     id="path116"
     sodipodi:nodetypes="cccccccc" /></svg>
